<svg xmlns="http://www.w3.org/2000/svg" width="128" height="128" viewBox="0 0 128 128">
  <g id="Group_21" data-name="Group 21" transform="translate(-1554 -759)">
    <g id="Group_16" data-name="Group 16" transform="translate(1554 760)">
      <rect id="Rectangle_2" data-name="Rectangle 2" width="128" height="128" rx="24" transform="translate(0 -1)" fill="#fff"/>
      <g id="Logo_01_s" transform="translate(10 10)">
        <g id="Group_6" data-name="Group 6" transform="translate(0.602)">
          <path id="Path_11" data-name="Path 11" d="M14.852,53.063C7.334,53.063,1.22,41.274,1.22,26.777S7.334.5,14.852.5,28.485,12.289,28.485,26.786,22.371,53.071,14.852,53.071h0Z" transform="translate(-0.805 -0.085)" fill="#bbd8f5"/>
          <path id="Path_12" data-name="Path 12" d="M14.768,0V.831c7.286,0,13.217,11.606,13.217,25.87s-5.931,25.87-13.217,25.87S1.551,40.965,1.551,26.7,7.482.831,14.768.831V0m0,0C7.009,0,.72,11.955.72,26.7S7.009,53.4,14.768,53.4,28.816,41.447,28.816,26.7,22.527,0,14.768,0Z" transform="translate(-0.72)" fill="#bbd8f5"/>
        </g>
        <g id="Group_7" data-name="Group 7" transform="translate(0 2.725)">
          <path id="Path_13" data-name="Path 13" d="M14.992,67.658a12.507,12.507,0,0,1-4.062-.665,13.952,13.952,0,0,1-7.967-7.685C-.6,51.741-.235,40.234,3.91,29.285c5.6-14.779,16.831-25.5,26.7-25.5a12.507,12.507,0,0,1,4.062.665,13.952,13.952,0,0,1,7.967,7.685c3.564,7.577,3.2,19.083-.955,30.032-5.6,14.779-16.831,25.5-26.7,25.5Z" transform="translate(-0.085 -3.365)" fill="#7cadeb"/>
          <path id="Path_14" data-name="Path 14" d="M30.521,4.111h0a12.174,12.174,0,0,1,3.929.64,13.543,13.543,0,0,1,7.726,7.469c3.514,7.477,3.149,18.859-.964,29.708C35.671,56.549,24.606,67.158,14.9,67.158a12.174,12.174,0,0,1-3.929-.64A13.543,13.543,0,0,1,3.247,59.05C-.267,51.581.1,40.2,4.211,29.35,9.752,14.728,20.818,4.119,30.521,4.111m0-.831c-9.886,0-21.3,10.5-27.09,25.771C-3.2,46.547.057,63.669,10.708,67.308a12.832,12.832,0,0,0,4.2.681c9.886,0,21.3-10.5,27.09-25.771C48.623,24.731,45.366,7.6,34.724,3.961a12.831,12.831,0,0,0-4.2-.681h0Z" transform="translate(0.004 -3.28)" fill="#7cadeb"/>
        </g>
        <g id="Group_8" data-name="Group 8" transform="translate(0.003 12.636)">
          <path id="Path_15" data-name="Path 15" d="M16.366,76.682c-5.126,0-9.3-1.5-12.1-4.328C1.662,69.7.358,65.932.508,61.471c.332-9.6,7.169-21.459,17.861-30.93C28.686,21.394,41.28,15.72,51.249,15.72c5.126,0,9.3,1.5,12.087,4.328,2.609,2.658,3.913,6.422,3.763,10.883-.324,9.6-7.169,21.459-17.861,30.93C38.921,71.008,26.327,76.682,16.358,76.682Z" transform="translate(-0.084 -15.296)" fill="#477fd4"/>
          <path id="Path_16" data-name="Path 16" d="M51.174,15.21v.831h0c5.009,0,9.088,1.454,11.8,4.2,2.534,2.575,3.788,6.231,3.639,10.576-.324,9.5-7.111,21.235-17.72,30.639C38.646,70.54,26.152,76.181,16.282,76.181c-5.009,0-9.088-1.454-11.8-4.2C1.952,69.4.7,65.746.847,61.4c.324-9.5,7.111-21.235,17.72-30.639C28.81,21.682,41.3,16.041,51.174,16.041V15.21m0,0c-9.778,0-22.314,5.317-33.155,14.929C1.537,44.744-4.785,63.736,3.888,72.558c2.966,3.016,7.3,4.453,12.386,4.453,9.778,0,22.314-5.317,33.155-14.929,16.474-14.605,22.8-33.6,14.123-42.419-2.966-3.016-7.3-4.453-12.386-4.453h0Z" transform="translate(0 -15.21)" fill="#477fd4"/>
        </g>
        <g id="Group_9" data-name="Group 9" transform="translate(0.004 31.038)">
          <path id="Path_17" data-name="Path 17" d="M28.14,97.219c-13.159,0-23.012-4.47-26.359-11.963-1.794-4-1.686-8.707.3-13.616,4.345-10.759,17-21.451,33.03-27.914a76.856,76.856,0,0,1,28.3-5.865c13.159,0,23.012,4.47,26.359,11.963,1.786,4,1.678,8.707-.3,13.616-4.345,10.759-17,21.451-33.03,27.914a76.856,76.856,0,0,1-28.3,5.865Z" transform="translate(-0.086 -37.445)" fill="#2e64ae"/>
          <path id="Path_18" data-name="Path 18" d="M63.336,38.191c12.984,0,22.7,4.378,25.977,11.722,1.736,3.888,1.637,8.482-.307,13.292-4.3,10.659-16.872,21.268-32.8,27.681a76.551,76.551,0,0,1-28.154,5.832C15.07,96.719,5.35,92.341,2.069,85,.332,81.109.432,76.514,2.376,71.7c4.3-10.659,16.872-21.268,32.8-27.681a76.517,76.517,0,0,1,28.154-5.832h0m0-.831a77.576,77.576,0,0,0-28.461,5.89C10.359,53.128-4.669,71.978,1.313,85.337,4.885,93.321,15.144,97.55,28.054,97.55a77.576,77.576,0,0,0,28.461-5.89C81.022,81.782,96.05,62.94,90.069,49.572,86.5,41.589,76.237,37.36,63.327,37.36Z" transform="translate(0 -37.36)" fill="#2e64ae"/>
        </g>
        <g id="Group_10" data-name="Group 10" transform="translate(0.004 56.36)">
          <path id="Path_19" data-name="Path 19" d="M54.083,119.15C24.542,119.15.5,107.752.5,93.745S24.533,68.34,54.083,68.34s53.583,11.4,53.583,25.405S83.632,119.15,54.083,119.15Z" transform="translate(-0.085 -67.925)" fill="#194a8d"/>
          <path id="Path_20" data-name="Path 20" d="M54,68.679c29.317,0,53.167,11.207,53.167,24.99S83.315,118.658,54,118.658.831,107.443.831,93.66,24.681,68.671,54,68.671m0-.822C24.175,67.848,0,79.4,0,93.66s24.175,25.82,54,25.82,54-11.556,54-25.82S83.822,67.84,54,67.84h0Z" transform="translate(0 -67.84)" fill="#194a8d"/>
        </g>
      </g>
    </g>
  </g>
</svg>
