<svg xmlns="http://www.w3.org/2000/svg" width="512" height="512" viewBox="0 0 512 512">
  <g id="Group_17" data-name="Group 17" transform="translate(-1554 -760)">
    <g id="Group_16" data-name="Group 16" transform="translate(1554 760)">
      <rect id="Rectangle_2" data-name="Rectangle 2" width="512" height="512" fill="#fff"/>
      <g id="Logo_01_s" transform="translate(40 39.999)">
        <g id="Group_6" data-name="Group 6" transform="translate(2.407)">
          <path id="Path_11" data-name="Path 11" d="M55.75,210.752c-30.073,0-54.53-47.155-54.53-105.143S25.677.5,55.75.5s54.53,47.155,54.53,105.143S85.823,210.786,55.75,210.786h0Z" transform="translate(0.441 1.162)" fill="#bbd8f5"/>
          <path id="Path_12" data-name="Path 12" d="M56.911,0V3.323c29.142,0,52.868,46.424,52.868,103.481S86.054,210.286,56.911,210.286,4.043,163.862,4.043,106.8,27.769,3.323,56.911,3.323V0m0,0C25.875,0,.72,47.819.72,106.8s25.155,106.8,56.191,106.8S113.1,165.789,113.1,106.8,87.948,0,56.911,0Z" transform="translate(-0.72)" fill="#bbd8f5"/>
        </g>
        <g id="Group_7" data-name="Group 7" transform="translate(0 10.9)">
          <path id="Path_13" data-name="Path 13" d="M58.395,259.293a50.028,50.028,0,0,1-16.249-2.659c-13.591-4.652-24.59-15.253-31.867-30.739-14.256-30.273-12.793-76.3,3.788-120.1C36.463,46.681,81.39,3.78,120.867,3.78a50.028,50.028,0,0,1,16.249,2.658c13.591,4.652,24.59,15.253,31.867,30.739,14.256,30.307,12.793,76.332-3.821,120.13-22.4,59.118-67.323,102.019-106.8,102.019Z" transform="translate(1.234 -2.118)" fill="#7cadeb"/>
          <path id="Path_14" data-name="Path 14" d="M122.1,6.6h0a48.7,48.7,0,0,1,15.718,2.559c13.159,4.486,23.826,14.821,30.9,29.875,14.056,29.908,12.594,75.434-3.855,118.834C142.7,216.357,98.436,258.793,59.624,258.793a48.7,48.7,0,0,1-15.718-2.559c-13.159-4.486-23.826-14.821-30.9-29.875-14.056-29.875-12.594-75.4,3.855-118.8C39.022,49.072,83.284,6.636,122.1,6.6m0-3.323c-39.543,0-85.2,42-108.362,103.082C-12.783,176.347.243,244.836,42.843,259.391a51.326,51.326,0,0,0,16.781,2.725c39.543,0,85.2-42,108.362-103.082C194.5,89.082,181.477,20.56,138.91,6A51.325,51.325,0,0,0,122.129,3.28h0Z" transform="translate(0.004 -3.28)" fill="#7cadeb"/>
        </g>
        <g id="Group_8" data-name="Group 8" transform="translate(0.013 50.544)">
          <path id="Path_15" data-name="Path 15" d="M63.978,259.569c-20.5,0-37.217-5.982-48.382-17.313C5.161,231.622-.056,216.568.542,198.723,1.871,160.308,29.219,112.887,71.986,75,113.257,38.417,163.633,15.72,203.509,15.72c20.5,0,37.217,5.982,48.349,17.313,10.434,10.634,15.651,25.688,15.053,43.533-1.3,38.415-28.677,85.836-71.444,123.719C154.2,236.872,103.82,259.569,63.944,259.569Z" transform="translate(1.154 -14.025)" fill="#477fd4"/>
          <path id="Path_16" data-name="Path 16" d="M204.7,15.21v3.323h0c20.037,0,36.353,5.815,47.186,16.815,10.135,10.3,15.153,24.923,14.555,42.3-1.3,37.983-28.445,84.938-70.879,122.556-40.972,36.321-90.95,58.885-130.426,58.885-20.038,0-36.353-5.815-47.186-16.815-10.135-10.3-15.153-24.923-14.555-42.3,1.3-37.983,28.445-84.938,70.879-122.556C115.241,41.1,165.219,18.533,204.7,18.533V15.21m0,0c-39.111,0-89.255,21.268-132.62,59.716C6.149,133.346-19.139,209.312,15.553,244.6c11.863,12.063,29.209,17.812,49.545,17.812,39.111,0,89.255-21.268,132.619-59.716,65.894-58.42,91.215-134.386,56.49-169.677C242.345,20.959,225,15.21,204.662,15.21h0Z" transform="translate(0 -15.21)" fill="#477fd4"/>
        </g>
        <g id="Group_9" data-name="Group 9" transform="translate(0.015 124.151)">
          <path id="Path_17" data-name="Path 17" d="M111.035,275.3C58.4,275.3,18.988,257.417,5.6,227.443c-7.178-15.984-6.746-34.826,1.2-54.466,17.379-43.034,67.988-85.8,132.121-111.656C177,45.968,216.14,37.86,252.128,37.86c52.636,0,92.046,17.878,105.438,47.853,7.144,15.984,6.712,34.826-1.2,54.466-17.379,43.034-67.988,85.8-132.121,111.656C186.167,267.187,147.022,275.3,111.035,275.3Z" transform="translate(1.182 -36.198)" fill="#2e64ae"/>
          <path id="Path_18" data-name="Path 18" d="M253.343,40.683c51.938,0,90.783,17.513,103.909,46.889,6.945,15.552,6.546,33.929-1.23,53.17-17.213,42.635-67.489,85.071-131.191,110.726C186.95,266.72,148,274.8,112.216,274.8c-51.938,0-90.817-17.513-103.942-46.889-6.945-15.552-6.546-33.929,1.229-53.17C26.716,132.1,76.993,89.666,140.694,64.011c37.882-15.253,76.794-23.328,112.615-23.328h0m0-3.323c-34.791,0-74.4,7.676-113.845,23.561C41.437,100.432-18.675,175.833,5.25,229.269c14.289,31.935,55.327,48.849,106.966,48.849,34.791,0,74.4-7.676,113.845-23.561C324.089,215.046,384.2,139.678,360.276,86.21,345.987,54.275,304.948,37.36,253.31,37.36Z" transform="translate(0 -37.36)" fill="#2e64ae"/>
        </g>
        <g id="Group_10" data-name="Group 10" transform="translate(0.015 225.439)">
          <path id="Path_19" data-name="Path 19" d="M214.831,271.581C96.667,271.581.5,225.988.5,169.96S96.633,68.34,214.831,68.34s214.331,45.593,214.331,101.62S333.029,271.581,214.831,271.581Z" transform="translate(1.161 -66.678)" fill="#194a8d"/>
          <path id="Path_20" data-name="Path 20" d="M215.993,71.2c117.267,0,212.67,44.829,212.67,99.959s-95.4,99.959-212.67,99.959S3.323,226.252,3.323,171.122s95.4-99.959,212.67-99.959m0-3.29C96.7,67.873,0,114.1,0,171.122S96.7,274.4,215.993,274.4s215.993-46.224,215.993-103.282S335.287,67.84,215.993,67.84h0Z" transform="translate(0 -67.84)" fill="#194a8d"/>
        </g>
      </g>
    </g>
  </g>
</svg>
