<svg xmlns="http://www.w3.org/2000/svg" width="512" height="512" viewBox="0 0 512 512">
  <g id="Group_18" data-name="Group 18" transform="translate(-1554 -760)">
    <g id="Group_16" data-name="Group 16">
      <rect id="Rectangle_2" data-name="Rectangle 2" width="512" height="512" transform="translate(1554 760)" fill="#fff"/>
      <g id="Logo_01_s" transform="translate(1614.207 820.213)">
        <g id="Group_6" data-name="Group 6" transform="translate(2.181)">
          <path id="Path_11" data-name="Path 11" d="M50.625,190.985c-27.247,0-49.405-42.721-49.405-95.257S23.378.5,50.625.5,100.03,43.221,100.03,95.757s-22.158,95.257-49.4,95.257h0Z" transform="translate(0.285 1.005)" fill="#bbd8f5"/>
          <path id="Path_12" data-name="Path 12" d="M51.63,0V3.011c26.4,0,47.9,42.059,47.9,93.752s-21.5,93.752-47.9,93.752-47.9-42.059-47.9-93.752,21.5-93.752,47.9-93.752V0m0,0C23.511,0,.72,43.323.72,96.763s22.791,96.763,50.91,96.763,50.91-43.323,50.91-96.763S79.75,0,51.63,0Z" transform="translate(-0.72)" fill="#bbd8f5"/>
        </g>
        <g id="Group_7" data-name="Group 7" transform="translate(0 9.875)">
          <path id="Path_13" data-name="Path 13" d="M52.956,235.27a45.327,45.327,0,0,1-14.722-2.409c-12.314-4.215-22.279-13.819-28.872-27.849C-3.554,177.586-2.229,135.888,12.794,96.207c20.292-53.56,61-92.427,96.763-92.427a45.328,45.328,0,0,1,14.722,2.409c12.314,4.215,22.279,13.819,28.872,27.849,12.916,27.457,11.591,69.155-3.462,108.836-20.292,53.56-61,92.427-96.763,92.427Z" transform="translate(1.068 -2.275)" fill="#7cadeb"/>
          <path id="Path_14" data-name="Path 14" d="M110.621,6.291h0a44.121,44.121,0,0,1,14.24,2.318c11.922,4.064,21.586,13.428,28,27.066,12.735,27.1,11.41,68.342-3.492,107.661C129.287,196.324,89.185,234.77,54.02,234.77a44.122,44.122,0,0,1-14.24-2.318c-11.922-4.064-21.586-13.428-28-27.066C-.955,178.32.37,137.074,15.273,97.755,35.354,44.767,75.456,6.321,110.621,6.291m0-3.011c-35.827,0-77.193,38.055-98.178,93.391C-11.582,160.075.22,222.125,38.816,235.312a46.5,46.5,0,0,0,15.2,2.469c35.827,0,77.193-38.055,98.178-93.391C176.223,81.015,164.421,18.935,125.855,5.749a46.5,46.5,0,0,0-15.2-2.469h0Z" transform="translate(0.004 -3.28)" fill="#7cadeb"/>
        </g>
        <g id="Group_8" data-name="Group 8" transform="translate(0.012 45.792)">
          <path id="Path_15" data-name="Path 15" d="M58.012,236.643c-18.576,0-33.719-5.419-43.835-15.686C4.723,211.323,0,197.685.538,181.517c1.2-34.8,25.982-77.765,64.729-112.087C102.66,36.283,148.3,15.72,184.429,15.72c18.576,0,33.719,5.419,43.805,15.686,9.453,9.634,14.18,23.272,13.638,39.44-1.174,34.8-25.982,77.765-64.729,112.087-37.392,33.147-83.034,53.71-119.162,53.71Z" transform="translate(0.999 -14.185)" fill="#477fd4"/>
          <path id="Path_16" data-name="Path 16" d="M185.458,15.21v3.011h0c18.154,0,32.937,5.269,42.751,15.234,9.183,9.333,13.729,22.58,13.187,38.326-1.174,34.412-25.771,76.953-64.217,111.033-37.121,32.907-82.4,53.349-118.169,53.349-18.154,0-32.937-5.269-42.751-15.234C7.076,211.6,2.53,198.349,3.072,182.6,4.246,148.191,28.843,105.65,67.289,71.57c37.122-32.907,82.4-53.349,118.169-53.349V15.21m0,0c-35.436,0-80.866,19.268-120.156,54.1C5.571,122.239-17.34,191.063,14.091,223.036c10.748,10.929,26.464,16.137,44.889,16.137,35.436,0,80.866-19.268,120.156-54.1,59.7-52.928,82.643-121.751,51.181-153.725C219.569,20.418,203.853,15.21,185.428,15.21h0Z" transform="translate(0 -15.21)" fill="#477fd4"/>
        </g>
        <g id="Group_9" data-name="Group 9" transform="translate(0.013 112.478)">
          <path id="Path_17" data-name="Path 17" d="M100.647,252.972c-47.689,0-83.4-16.2-95.528-43.354-6.5-14.481-6.112-31.552,1.084-49.345,15.746-38.988,61.6-77.735,119.7-101.158,34.5-13.909,69.968-21.255,102.573-21.255,47.689,0,83.4,16.2,95.528,43.354,6.473,14.481,6.082,31.552-1.084,49.345-15.746,38.988-61.6,77.735-119.7,101.158-34.5,13.909-69.968,21.255-102.573,21.255Z" transform="translate(1.023 -36.355)" fill="#2e64ae"/>
          <path id="Path_18" data-name="Path 18" d="M229.533,40.371c47.057,0,82.251,15.866,94.143,42.48,6.292,14.09,5.931,30.739-1.114,48.171-15.6,38.627-61.147,77.073-118.861,100.315-34.322,13.819-69.607,21.135-102.031,21.135-47.057,0-82.281-15.866-94.174-42.48C1.2,195.9,1.565,179.253,8.61,161.821c15.6-38.627,61.147-77.073,118.861-100.315C161.793,47.687,197.048,40.371,229.5,40.371h0m0-3.011c-31.522,0-67.409,6.955-103.145,21.346C37.543,94.5-16.92,162.814,4.757,211.226c12.946,28.932,50.128,44.257,96.913,44.257,31.522,0,67.409-6.955,103.145-21.346,88.815-35.8,143.278-104.079,121.6-152.52C313.47,52.684,276.289,37.36,229.5,37.36h0Z" transform="translate(0 -37.36)" fill="#2e64ae"/>
        </g>
        <g id="Group_10" data-name="Group 10" transform="translate(0.013 204.243)">
          <path id="Path_19" data-name="Path 19" d="M194.688,252.472C87.629,252.472.5,211.166.5,160.406S87.6,68.34,194.688,68.34s194.188,41.306,194.188,92.066S301.777,252.472,194.688,252.472Z" transform="translate(1.005 -66.835)" fill="#194a8d"/>
          <path id="Path_20" data-name="Path 20" d="M195.693,70.881c106.246,0,192.683,40.614,192.683,90.561S301.94,252,195.693,252,3.011,211.358,3.011,161.411,89.447,70.851,195.693,70.851m0-2.981C87.61,67.87,0,109.748,0,161.411s87.61,93.571,195.693,93.571S391.386,213.1,391.386,161.411,303.776,67.84,195.693,67.84h0Z" transform="translate(0 -67.84)" fill="#194a8d"/>
        </g>
      </g>
    </g>
  </g>
</svg>
